<mxfile host="app.diagrams.net" modified="2024-08-17T15:45:42.384Z" agent="Mozilla/5.0 (Windows NT 10.0; Win64; x64; rv:129.0) Gecko/20100101 Firefox/129.0" etag="RI-V2BjcxeTBMsmp4zGf" version="24.6.4" type="device">
  <diagram name="Page-1" id="g1uP1Ad3g0f5Xh9DKhoT">
    <mxGraphModel dx="707" dy="386" grid="1" gridSize="10" guides="1" tooltips="1" connect="1" arrows="1" fold="1" page="1" pageScale="1" pageWidth="850" pageHeight="1100" math="0" shadow="0">
      <root>
        <mxCell id="0" />
        <mxCell id="1" parent="0" />
        <mxCell id="aICgjqrGmt-z7lyRgDQK-1" value="Transaction " style="rounded=0;whiteSpace=wrap;html=1;strokeColor=#028090;fontColor=#000000;fillColor=#F45B69;labelBackgroundColor=none;fontFamily=Lucida Console;fontStyle=1" vertex="1" parent="1">
          <mxGeometry x="1120" y="560" width="120" height="60" as="geometry" />
        </mxCell>
        <mxCell id="aICgjqrGmt-z7lyRgDQK-69" style="edgeStyle=orthogonalEdgeStyle;shape=connector;rounded=0;orthogonalLoop=1;jettySize=auto;html=1;entryX=1;entryY=0.5;entryDx=0;entryDy=0;strokeColor=#028090;align=center;verticalAlign=middle;fontFamily=Lucida Console;fontSize=12;fontColor=#000000;labelBackgroundColor=none;endArrow=none;endFill=0;fillColor=#F45B69;" edge="1" parent="1" source="aICgjqrGmt-z7lyRgDQK-5" target="aICgjqrGmt-z7lyRgDQK-1">
          <mxGeometry relative="1" as="geometry" />
        </mxCell>
        <mxCell id="aICgjqrGmt-z7lyRgDQK-5" value="&lt;pre class=&quot;notranslate&quot;&gt;&lt;code&gt;amount&lt;/code&gt;&lt;/pre&gt;" style="ellipse;whiteSpace=wrap;html=1;rounded=0;strokeColor=#028090;align=center;verticalAlign=middle;fontFamily=Lucida Console;fontSize=12;fontColor=#000000;labelBackgroundColor=none;fillColor=#F45B69;" vertex="1" parent="1">
          <mxGeometry x="1310" y="490" width="140" height="60" as="geometry" />
        </mxCell>
        <mxCell id="aICgjqrGmt-z7lyRgDQK-68" style="edgeStyle=orthogonalEdgeStyle;shape=connector;rounded=0;orthogonalLoop=1;jettySize=auto;html=1;entryX=1;entryY=0.5;entryDx=0;entryDy=0;strokeColor=#028090;align=center;verticalAlign=middle;fontFamily=Lucida Console;fontSize=12;fontColor=#000000;labelBackgroundColor=none;endArrow=none;endFill=0;fillColor=#F45B69;" edge="1" parent="1" source="aICgjqrGmt-z7lyRgDQK-6" target="aICgjqrGmt-z7lyRgDQK-1">
          <mxGeometry relative="1" as="geometry">
            <Array as="points">
              <mxPoint x="1290" y="590" />
              <mxPoint x="1290" y="590" />
            </Array>
          </mxGeometry>
        </mxCell>
        <mxCell id="aICgjqrGmt-z7lyRgDQK-6" value="&lt;pre class=&quot;notranslate&quot;&gt;&lt;code&gt;currencyId&lt;/code&gt;&lt;/pre&gt;" style="ellipse;whiteSpace=wrap;html=1;rounded=0;strokeColor=#028090;align=center;verticalAlign=middle;fontFamily=Lucida Console;fontSize=12;fontColor=#000000;labelBackgroundColor=none;fillColor=#F45B69;" vertex="1" parent="1">
          <mxGeometry x="1310" y="573" width="140" height="60" as="geometry" />
        </mxCell>
        <mxCell id="aICgjqrGmt-z7lyRgDQK-72" style="edgeStyle=orthogonalEdgeStyle;shape=connector;rounded=0;orthogonalLoop=1;jettySize=auto;html=1;entryX=1;entryY=0.5;entryDx=0;entryDy=0;strokeColor=#028090;align=center;verticalAlign=middle;fontFamily=Lucida Console;fontSize=12;fontColor=#000000;labelBackgroundColor=none;endArrow=none;endFill=0;fillColor=#F45B69;" edge="1" parent="1" source="aICgjqrGmt-z7lyRgDQK-7" target="aICgjqrGmt-z7lyRgDQK-1">
          <mxGeometry relative="1" as="geometry" />
        </mxCell>
        <mxCell id="aICgjqrGmt-z7lyRgDQK-7" value="&lt;pre class=&quot;notranslate&quot;&gt;&lt;code&gt;message&lt;/code&gt;&lt;/pre&gt;" style="ellipse;whiteSpace=wrap;html=1;rounded=0;strokeColor=#028090;align=center;verticalAlign=middle;fontFamily=Lucida Console;fontSize=12;fontColor=#000000;labelBackgroundColor=none;fillColor=#F45B69;" vertex="1" parent="1">
          <mxGeometry x="1310" y="657" width="140" height="60" as="geometry" />
        </mxCell>
        <mxCell id="aICgjqrGmt-z7lyRgDQK-71" style="edgeStyle=orthogonalEdgeStyle;shape=connector;rounded=0;orthogonalLoop=1;jettySize=auto;html=1;strokeColor=#028090;align=center;verticalAlign=middle;fontFamily=Lucida Console;fontSize=12;fontColor=#000000;labelBackgroundColor=none;endArrow=none;endFill=0;fillColor=#F45B69;entryX=1;entryY=0.5;entryDx=0;entryDy=0;" edge="1" parent="1" source="aICgjqrGmt-z7lyRgDQK-8" target="aICgjqrGmt-z7lyRgDQK-1">
          <mxGeometry relative="1" as="geometry">
            <mxPoint x="1290" y="680" as="targetPoint" />
          </mxGeometry>
        </mxCell>
        <mxCell id="aICgjqrGmt-z7lyRgDQK-8" value="&lt;pre class=&quot;notranslate&quot;&gt;&lt;code&gt;timestamp&lt;/code&gt;&lt;/pre&gt;" style="ellipse;whiteSpace=wrap;html=1;rounded=0;strokeColor=#028090;align=center;verticalAlign=middle;fontFamily=Lucida Console;fontSize=12;fontColor=#000000;labelBackgroundColor=none;fillColor=#F45B69;" vertex="1" parent="1">
          <mxGeometry x="1310" y="740" width="140" height="60" as="geometry" />
        </mxCell>
        <mxCell id="aICgjqrGmt-z7lyRgDQK-25" style="edgeStyle=orthogonalEdgeStyle;shape=connector;rounded=0;orthogonalLoop=1;jettySize=auto;html=1;entryX=1;entryY=0.5;entryDx=0;entryDy=0;strokeColor=#028090;align=center;verticalAlign=middle;fontFamily=Lucida Console;fontSize=12;fontColor=#000000;labelBackgroundColor=none;endArrow=none;endFill=0;fillColor=#F45B69;" edge="1" parent="1" source="aICgjqrGmt-z7lyRgDQK-17" target="aICgjqrGmt-z7lyRgDQK-19">
          <mxGeometry relative="1" as="geometry" />
        </mxCell>
        <mxCell id="aICgjqrGmt-z7lyRgDQK-26" style="edgeStyle=orthogonalEdgeStyle;shape=connector;rounded=0;orthogonalLoop=1;jettySize=auto;html=1;entryX=1;entryY=0.5;entryDx=0;entryDy=0;strokeColor=#028090;align=center;verticalAlign=middle;fontFamily=Lucida Console;fontSize=12;fontColor=#000000;labelBackgroundColor=none;endArrow=none;endFill=0;fillColor=#F45B69;" edge="1" parent="1" source="aICgjqrGmt-z7lyRgDQK-17" target="aICgjqrGmt-z7lyRgDQK-20">
          <mxGeometry relative="1" as="geometry">
            <Array as="points">
              <mxPoint x="340" y="590" />
            </Array>
          </mxGeometry>
        </mxCell>
        <mxCell id="aICgjqrGmt-z7lyRgDQK-27" style="edgeStyle=orthogonalEdgeStyle;shape=connector;rounded=0;orthogonalLoop=1;jettySize=auto;html=1;entryX=1;entryY=0.5;entryDx=0;entryDy=0;strokeColor=#028090;align=center;verticalAlign=middle;fontFamily=Lucida Console;fontSize=12;fontColor=#000000;labelBackgroundColor=none;endArrow=none;endFill=0;fillColor=#F45B69;" edge="1" parent="1" source="aICgjqrGmt-z7lyRgDQK-17" target="aICgjqrGmt-z7lyRgDQK-21">
          <mxGeometry relative="1" as="geometry" />
        </mxCell>
        <mxCell id="aICgjqrGmt-z7lyRgDQK-28" style="edgeStyle=orthogonalEdgeStyle;shape=connector;rounded=0;orthogonalLoop=1;jettySize=auto;html=1;entryX=1;entryY=0.5;entryDx=0;entryDy=0;strokeColor=#028090;align=center;verticalAlign=middle;fontFamily=Lucida Console;fontSize=12;fontColor=#000000;labelBackgroundColor=none;endArrow=none;endFill=0;fillColor=#F45B69;" edge="1" parent="1" source="aICgjqrGmt-z7lyRgDQK-17" target="aICgjqrGmt-z7lyRgDQK-22">
          <mxGeometry relative="1" as="geometry" />
        </mxCell>
        <mxCell id="aICgjqrGmt-z7lyRgDQK-29" style="edgeStyle=orthogonalEdgeStyle;shape=connector;rounded=0;orthogonalLoop=1;jettySize=auto;html=1;entryX=1;entryY=0.5;entryDx=0;entryDy=0;strokeColor=#028090;align=center;verticalAlign=middle;fontFamily=Lucida Console;fontSize=12;fontColor=#000000;labelBackgroundColor=none;endArrow=none;endFill=0;fillColor=#F45B69;" edge="1" parent="1" source="aICgjqrGmt-z7lyRgDQK-17" target="aICgjqrGmt-z7lyRgDQK-23">
          <mxGeometry relative="1" as="geometry" />
        </mxCell>
        <mxCell id="aICgjqrGmt-z7lyRgDQK-38" style="edgeStyle=orthogonalEdgeStyle;shape=connector;rounded=0;orthogonalLoop=1;jettySize=auto;html=1;strokeColor=#028090;align=center;verticalAlign=middle;fontFamily=Lucida Console;fontSize=12;fontColor=#000000;labelBackgroundColor=none;endArrow=none;endFill=0;fillColor=#F45B69;" edge="1" parent="1" source="aICgjqrGmt-z7lyRgDQK-17" target="aICgjqrGmt-z7lyRgDQK-37">
          <mxGeometry relative="1" as="geometry" />
        </mxCell>
        <mxCell id="aICgjqrGmt-z7lyRgDQK-17" value="Customer " style="rounded=0;whiteSpace=wrap;html=1;strokeColor=#028090;fontColor=#000000;fillColor=#F45B69;labelBackgroundColor=none;fontFamily=Lucida Console;fontStyle=1" vertex="1" parent="1">
          <mxGeometry x="420" y="560" width="120" height="60" as="geometry" />
        </mxCell>
        <mxCell id="aICgjqrGmt-z7lyRgDQK-19" value="&lt;pre class=&quot;notranslate&quot;&gt;&lt;code&gt;name&lt;/code&gt;&lt;/pre&gt;" style="ellipse;whiteSpace=wrap;html=1;rounded=0;strokeColor=#028090;align=center;verticalAlign=middle;fontFamily=Lucida Console;fontSize=12;fontColor=#000000;labelBackgroundColor=none;fillColor=#F45B69;" vertex="1" parent="1">
          <mxGeometry x="200" y="490" width="140" height="60" as="geometry" />
        </mxCell>
        <mxCell id="aICgjqrGmt-z7lyRgDQK-20" value="&lt;pre class=&quot;notranslate&quot;&gt;&lt;code&gt;address&lt;/code&gt;&lt;/pre&gt;" style="ellipse;whiteSpace=wrap;html=1;rounded=0;strokeColor=#028090;align=center;verticalAlign=middle;fontFamily=Lucida Console;fontSize=12;fontColor=#000000;labelBackgroundColor=none;fillColor=#F45B69;" vertex="1" parent="1">
          <mxGeometry x="200" y="560" width="140" height="60" as="geometry" />
        </mxCell>
        <mxCell id="aICgjqrGmt-z7lyRgDQK-21" value="&lt;pre class=&quot;notranslate&quot;&gt;&lt;code&gt;email&lt;/code&gt;&lt;/pre&gt;" style="ellipse;whiteSpace=wrap;html=1;rounded=0;strokeColor=#028090;align=center;verticalAlign=middle;fontFamily=Lucida Console;fontSize=12;fontColor=#000000;labelBackgroundColor=none;fillColor=#F45B69;" vertex="1" parent="1">
          <mxGeometry x="200" y="630" width="140" height="60" as="geometry" />
        </mxCell>
        <mxCell id="aICgjqrGmt-z7lyRgDQK-22" value="&lt;pre class=&quot;notranslate&quot;&gt;&lt;code&gt;phoneNumber&lt;/code&gt;&lt;/pre&gt;" style="ellipse;whiteSpace=wrap;html=1;rounded=0;strokeColor=#028090;align=center;verticalAlign=middle;fontFamily=Lucida Console;fontSize=12;fontColor=#000000;labelBackgroundColor=none;fillColor=#F45B69;" vertex="1" parent="1">
          <mxGeometry x="200" y="700" width="140" height="60" as="geometry" />
        </mxCell>
        <mxCell id="aICgjqrGmt-z7lyRgDQK-23" value="&lt;pre class=&quot;notranslate&quot;&gt;&lt;code&gt;accounts&lt;/code&gt;&lt;/pre&gt;" style="ellipse;whiteSpace=wrap;html=1;rounded=0;strokeColor=#028090;align=center;verticalAlign=middle;fontFamily=Lucida Console;fontSize=12;fontColor=#000000;labelBackgroundColor=none;fillColor=#F45B69;" vertex="1" parent="1">
          <mxGeometry x="200" y="770" width="140" height="60" as="geometry" />
        </mxCell>
        <mxCell id="aICgjqrGmt-z7lyRgDQK-60" style="edgeStyle=orthogonalEdgeStyle;shape=connector;rounded=0;orthogonalLoop=1;jettySize=auto;html=1;entryX=0.5;entryY=0;entryDx=0;entryDy=0;strokeColor=#028090;align=center;verticalAlign=middle;fontFamily=Lucida Console;fontSize=12;fontColor=#000000;labelBackgroundColor=none;endArrow=none;endFill=0;fillColor=#F45B69;" edge="1" parent="1" source="aICgjqrGmt-z7lyRgDQK-31" target="aICgjqrGmt-z7lyRgDQK-34">
          <mxGeometry relative="1" as="geometry">
            <Array as="points">
              <mxPoint x="820" y="690" />
              <mxPoint x="745" y="690" />
            </Array>
          </mxGeometry>
        </mxCell>
        <mxCell id="aICgjqrGmt-z7lyRgDQK-31" value="Account" style="rounded=0;whiteSpace=wrap;html=1;strokeColor=#028090;fontColor=#000000;fillColor=#F45B69;labelBackgroundColor=none;fontFamily=Lucida Console;fontStyle=1" vertex="1" parent="1">
          <mxGeometry x="760" y="560" width="120" height="60" as="geometry" />
        </mxCell>
        <mxCell id="aICgjqrGmt-z7lyRgDQK-61" style="edgeStyle=orthogonalEdgeStyle;shape=connector;rounded=0;orthogonalLoop=1;jettySize=auto;html=1;entryX=0.5;entryY=1;entryDx=0;entryDy=0;strokeColor=#028090;align=center;verticalAlign=middle;fontFamily=Lucida Console;fontSize=12;fontColor=#000000;labelBackgroundColor=none;endArrow=none;endFill=0;fillColor=#F45B69;" edge="1" parent="1" source="aICgjqrGmt-z7lyRgDQK-33" target="aICgjqrGmt-z7lyRgDQK-31">
          <mxGeometry relative="1" as="geometry">
            <Array as="points">
              <mxPoint x="590" y="690" />
              <mxPoint x="820" y="690" />
            </Array>
          </mxGeometry>
        </mxCell>
        <mxCell id="aICgjqrGmt-z7lyRgDQK-33" value="&lt;pre class=&quot;notranslate&quot;&gt;&lt;code&gt;accountNumber&lt;/code&gt;&lt;/pre&gt;" style="ellipse;whiteSpace=wrap;html=1;rounded=0;strokeColor=#028090;align=center;verticalAlign=middle;fontFamily=Lucida Console;fontSize=12;fontColor=#000000;labelBackgroundColor=none;fillColor=#F45B69;" vertex="1" parent="1">
          <mxGeometry x="525" y="740" width="140" height="60" as="geometry" />
        </mxCell>
        <mxCell id="aICgjqrGmt-z7lyRgDQK-34" value="&lt;pre class=&quot;notranslate&quot;&gt;&lt;code&gt;accountType&lt;/code&gt;&lt;/pre&gt;" style="ellipse;whiteSpace=wrap;html=1;rounded=0;strokeColor=#028090;align=center;verticalAlign=middle;fontFamily=Lucida Console;fontSize=12;fontColor=#000000;labelBackgroundColor=none;fillColor=#F45B69;" vertex="1" parent="1">
          <mxGeometry x="675" y="740" width="140" height="60" as="geometry" />
        </mxCell>
        <mxCell id="aICgjqrGmt-z7lyRgDQK-63" style="edgeStyle=orthogonalEdgeStyle;shape=connector;rounded=0;orthogonalLoop=1;jettySize=auto;html=1;entryX=0.5;entryY=1;entryDx=0;entryDy=0;strokeColor=#028090;align=center;verticalAlign=middle;fontFamily=Lucida Console;fontSize=12;fontColor=#000000;labelBackgroundColor=none;endArrow=none;endFill=0;fillColor=#F45B69;" edge="1" parent="1" source="aICgjqrGmt-z7lyRgDQK-35" target="aICgjqrGmt-z7lyRgDQK-31">
          <mxGeometry relative="1" as="geometry">
            <Array as="points">
              <mxPoint x="1040" y="690" />
              <mxPoint x="820" y="690" />
            </Array>
          </mxGeometry>
        </mxCell>
        <mxCell id="aICgjqrGmt-z7lyRgDQK-35" value="&lt;pre class=&quot;notranslate&quot;&gt;&lt;code&gt;balance&lt;/code&gt;&lt;/pre&gt;" style="ellipse;whiteSpace=wrap;html=1;rounded=0;strokeColor=#028090;align=center;verticalAlign=middle;fontFamily=Lucida Console;fontSize=12;fontColor=#000000;labelBackgroundColor=none;fillColor=#F45B69;" vertex="1" parent="1">
          <mxGeometry x="975" y="740" width="140" height="60" as="geometry" />
        </mxCell>
        <mxCell id="aICgjqrGmt-z7lyRgDQK-62" style="edgeStyle=orthogonalEdgeStyle;shape=connector;rounded=0;orthogonalLoop=1;jettySize=auto;html=1;entryX=0.5;entryY=1;entryDx=0;entryDy=0;strokeColor=#028090;align=center;verticalAlign=middle;fontFamily=Lucida Console;fontSize=12;fontColor=#000000;labelBackgroundColor=none;endArrow=none;endFill=0;fillColor=#F45B69;" edge="1" parent="1" source="aICgjqrGmt-z7lyRgDQK-36" target="aICgjqrGmt-z7lyRgDQK-31">
          <mxGeometry relative="1" as="geometry">
            <Array as="points">
              <mxPoint x="890" y="690" />
              <mxPoint x="820" y="690" />
            </Array>
          </mxGeometry>
        </mxCell>
        <mxCell id="aICgjqrGmt-z7lyRgDQK-36" value="&lt;pre class=&quot;notranslate&quot;&gt;&lt;code&gt;pastMonthTurnover&lt;/code&gt;&lt;/pre&gt;" style="ellipse;whiteSpace=wrap;html=1;rounded=0;strokeColor=#028090;align=center;verticalAlign=middle;fontFamily=Lucida Console;fontSize=12;fontColor=#000000;labelBackgroundColor=none;fillColor=#F45B69;" vertex="1" parent="1">
          <mxGeometry x="825" y="740" width="140" height="60" as="geometry" />
        </mxCell>
        <mxCell id="aICgjqrGmt-z7lyRgDQK-39" style="edgeStyle=orthogonalEdgeStyle;shape=connector;rounded=0;orthogonalLoop=1;jettySize=auto;html=1;strokeColor=#028090;align=center;verticalAlign=middle;fontFamily=Lucida Console;fontSize=12;fontColor=#000000;labelBackgroundColor=none;endArrow=none;endFill=0;fillColor=#F45B69;" edge="1" parent="1" source="aICgjqrGmt-z7lyRgDQK-37" target="aICgjqrGmt-z7lyRgDQK-31">
          <mxGeometry relative="1" as="geometry" />
        </mxCell>
        <mxCell id="aICgjqrGmt-z7lyRgDQK-37" value="Has" style="rhombus;whiteSpace=wrap;html=1;rounded=0;strokeColor=#028090;align=center;verticalAlign=middle;fontFamily=Lucida Console;fontSize=12;fontColor=#000000;labelBackgroundColor=none;fillColor=#F45B69;fontStyle=1" vertex="1" parent="1">
          <mxGeometry x="600" y="550" width="80" height="80" as="geometry" />
        </mxCell>
        <mxCell id="aICgjqrGmt-z7lyRgDQK-40" value="0:M" style="text;html=1;align=center;verticalAlign=middle;resizable=0;points=[];autosize=1;strokeColor=none;fillColor=none;fontFamily=Lucida Console;fontSize=12;fontColor=#000000;labelBackgroundColor=none;" vertex="1" parent="1">
          <mxGeometry x="710" y="560" width="50" height="30" as="geometry" />
        </mxCell>
        <mxCell id="aICgjqrGmt-z7lyRgDQK-41" value="1:1" style="text;html=1;align=center;verticalAlign=middle;resizable=0;points=[];autosize=1;strokeColor=none;fillColor=none;fontFamily=Lucida Console;fontSize=12;fontColor=#000000;labelBackgroundColor=none;" vertex="1" parent="1">
          <mxGeometry x="540" y="560" width="50" height="30" as="geometry" />
        </mxCell>
        <mxCell id="aICgjqrGmt-z7lyRgDQK-57" style="shape=connector;rounded=0;orthogonalLoop=1;jettySize=auto;html=1;entryX=1;entryY=1;entryDx=0;entryDy=0;strokeColor=#028090;align=center;verticalAlign=middle;fontFamily=Lucida Console;fontSize=12;fontColor=#000000;labelBackgroundColor=none;endArrow=none;endFill=0;fillColor=#F45B69;exitX=0.5;exitY=1;exitDx=0;exitDy=0;" edge="1" parent="1" source="aICgjqrGmt-z7lyRgDQK-42" target="aICgjqrGmt-z7lyRgDQK-31">
          <mxGeometry relative="1" as="geometry" />
        </mxCell>
        <mxCell id="aICgjqrGmt-z7lyRgDQK-64" style="edgeStyle=orthogonalEdgeStyle;shape=connector;rounded=0;orthogonalLoop=1;jettySize=auto;html=1;entryX=0;entryY=0.5;entryDx=0;entryDy=0;strokeColor=#028090;align=center;verticalAlign=middle;fontFamily=Lucida Console;fontSize=12;fontColor=#000000;labelBackgroundColor=none;endArrow=none;endFill=0;fillColor=#F45B69;" edge="1" parent="1" source="aICgjqrGmt-z7lyRgDQK-42" target="aICgjqrGmt-z7lyRgDQK-1">
          <mxGeometry relative="1" as="geometry" />
        </mxCell>
        <mxCell id="aICgjqrGmt-z7lyRgDQK-42" value="Creates" style="rhombus;whiteSpace=wrap;html=1;rounded=0;strokeColor=#028090;align=center;verticalAlign=middle;fontFamily=Lucida Console;fontSize=12;fontColor=#000000;labelBackgroundColor=none;fillColor=#F45B69;fontStyle=1" vertex="1" parent="1">
          <mxGeometry x="940" y="530" width="120" height="120" as="geometry" />
        </mxCell>
        <mxCell id="aICgjqrGmt-z7lyRgDQK-45" value="1:M" style="text;html=1;align=center;verticalAlign=middle;resizable=0;points=[];autosize=1;strokeColor=none;fillColor=none;fontFamily=Lucida Console;fontSize=12;fontColor=#000000;labelBackgroundColor=none;" vertex="1" parent="1">
          <mxGeometry x="850" y="530" width="50" height="30" as="geometry" />
        </mxCell>
        <mxCell id="aICgjqrGmt-z7lyRgDQK-58" style="shape=connector;rounded=0;orthogonalLoop=1;jettySize=auto;html=1;entryX=1;entryY=0;entryDx=0;entryDy=0;strokeColor=#028090;align=center;verticalAlign=middle;fontFamily=Lucida Console;fontSize=12;fontColor=#000000;labelBackgroundColor=none;endArrow=none;endFill=0;fillColor=#F45B69;exitX=0.5;exitY=0;exitDx=0;exitDy=0;" edge="1" parent="1" source="aICgjqrGmt-z7lyRgDQK-42" target="aICgjqrGmt-z7lyRgDQK-31">
          <mxGeometry relative="1" as="geometry" />
        </mxCell>
        <mxCell id="aICgjqrGmt-z7lyRgDQK-59" value="1:N" style="text;html=1;align=center;verticalAlign=middle;resizable=0;points=[];autosize=1;strokeColor=none;fillColor=none;fontFamily=Lucida Console;fontSize=12;fontColor=#000000;labelBackgroundColor=none;" vertex="1" parent="1">
          <mxGeometry x="850" y="620" width="50" height="30" as="geometry" />
        </mxCell>
        <mxCell id="aICgjqrGmt-z7lyRgDQK-67" value="1:1" style="text;html=1;align=center;verticalAlign=middle;resizable=0;points=[];autosize=1;strokeColor=none;fillColor=none;fontFamily=Lucida Console;fontSize=12;fontColor=#000000;labelBackgroundColor=none;" vertex="1" parent="1">
          <mxGeometry x="1070" y="560" width="50" height="30" as="geometry" />
        </mxCell>
      </root>
    </mxGraphModel>
  </diagram>
</mxfile>
